<svg width="289" height="76" viewBox="0 0 289 76" fill="none" xmlns="http://www.w3.org/2000/svg">
<path fill-rule="evenodd" clip-rule="evenodd" d="M6.55873 28.2132V19.3354C12.0905 19.1509 27.2825 18.3606 34.2175 21.759C50.0032 29.4514 45.8746 51.712 29.7921 55.8743C24.0984 57.3496 14.4111 56.4276 6.53175 56.4276L6.55873 47.4443L24.9349 47.3126C34.2175 45.2051 36.2413 35.5368 30.8175 30.9794C29.4952 29.8729 28.119 28.9772 25.1238 28.7665C16.327 28.2396 10.2825 28.2132 6.55873 28.2132ZM6.53175 61.7227C6.55873 61.7227 6.55873 61.7227 6.55873 61.7227C8.44762 60.906 25.6095 63.0135 33.5698 60.0894C40.2349 57.6394 45.0381 52.7394 47.5476 46.3115C53.8079 30.3734 40.9635 14.5144 26.9587 14.3827L6.53175 13.8822V5.87362C20.8873 5.95265 47.3317 6.29512 57.8825 6.08437L57.9095 13.566V13.5924V14.7252C54.3476 14.7779 47.5476 14.6725 44.0667 14.6198C45.3619 15.7789 47.1698 17.9918 48.1683 19.0192L62.8476 19.2036V19.0983L62.7936 1L1 1.13172L1.02698 33.1395C10.6873 33.0869 18.081 33.2449 21.9397 33.3766C23.181 33.403 25.5825 33.5347 26.7429 35.089C27.5794 36.2481 27.4984 37.8024 27.4714 38.0132C27.2286 41.3062 24.6651 42.2282 21.373 42.4916H3.83333C2.8619 42.4653 1.94444 42.4653 1.10794 42.4389V42.4916V44.7045V46.9701V47.4706H1.13492V56.5856L1.10794 61.3539V63.4087L1.05397 74.9737H1.10794H6.28889L62.8746 75L62.9286 56.6646L48.2492 56.8491C47.2508 57.8765 45.4159 60.0894 44.1476 61.2485C47.6286 61.1958 54.4825 61.0904 58.0444 61.1431V70.8904C55.1032 71.0221 8.8254 70.8113 6.6127 70.8377L6.53175 61.7227ZM53.4571 28.7401C57.9635 28.7665 59.6635 28.7138 62.8476 28.7401L62.8746 47.1282L53.5651 47.0491C54.4825 43.8088 54.5905 43.7298 54.9143 42.2545C56.1825 42.2809 57.2079 42.1755 58.4762 42.2019L58.4492 33.6928L57.6667 33.6664H54.5365L53.4571 28.7401Z" fill="url(#paint0_linear_11_16)" stroke="#8656A2" stroke-width="0.5" stroke-miterlimit="2.6131"/>
<path d="M72.1107 40V22.375H78.6607C81.6107 22.375 83.8857 23.1333 85.4857 24.65C87.1023 26.1667 87.9107 28.3417 87.9107 31.175C87.9107 33.9917 87.1023 36.1667 85.4857 37.7C83.8857 39.2333 81.6107 40 78.6607 40H72.1107ZM75.3107 37.35H78.4607C82.5273 37.35 84.5607 35.2917 84.5607 31.175C84.5607 27.075 82.5273 25.025 78.4607 25.025H75.3107V37.35ZM92.1536 40V22.375H95.3536V40H92.1536ZM108.66 40.25C106.71 40.25 105.06 39.8833 103.71 39.15C102.377 38.4167 101.36 37.375 100.66 36.025C99.9599 34.675 99.6099 33.075 99.6099 31.225C99.6099 29.3583 99.9682 27.75 100.685 26.4C101.402 25.0333 102.435 23.9833 103.785 23.25C105.135 22.5 106.752 22.125 108.635 22.125C109.868 22.125 111.027 22.3083 112.11 22.675C113.193 23.025 114.093 23.5167 114.81 24.15L113.735 26.65C112.952 26.0333 112.152 25.5917 111.335 25.325C110.518 25.0583 109.618 24.925 108.635 24.925C106.768 24.925 105.352 25.4667 104.385 26.55C103.435 27.6333 102.96 29.1917 102.96 31.225C102.96 33.275 103.452 34.8333 104.435 35.9C105.418 36.9667 106.877 37.5 108.81 37.5C109.36 37.5 109.918 37.4583 110.485 37.375C111.068 37.275 111.643 37.1333 112.21 36.95V32.85H108.16V30.475H114.885V38.95C114.068 39.35 113.102 39.6667 111.985 39.9C110.868 40.1333 109.76 40.25 108.66 40.25ZM119.593 40V22.375H122.793V40H119.593ZM131.874 40V25.05H125.824V22.375H141.124V25.05H135.074V40H131.874ZM140.299 40L148.274 22.375H150.899L158.874 40H155.624L153.874 35.925H145.274L143.549 40H140.299ZM149.549 25.85L146.374 33.375H152.774L149.599 25.85H149.549ZM161.802 40V22.375H165.002V37.275H173.452V40H161.802ZM176.84 40V22.375H180.04V37.275H188.49V40H176.84ZM193.124 40V31.9L186.349 22.375H190.074L194.774 29.05L199.499 22.375H203.074L196.324 31.925V40H193.124ZM213.117 40V22.375H224.842V24.925H216.192V29.775H224.292V32.325H216.192V37.45H224.842V40H213.117ZM229.034 40V22.375H232.234V37.275H240.684V40H229.034ZM244.072 40V22.375H247.272V40H244.072ZM256.353 40V25.05H250.303V22.375H265.603V25.05H259.553V40H256.353ZM268.63 40V22.375H280.355V24.925H271.705V29.775H279.805V32.325H271.705V37.45H280.355V40H268.63Z" fill="black"/>
<path d="M70.979 59V51.19H73.63C74.4587 51.19 75.148 51.366 75.698 51.718C76.2553 52.0627 76.6733 52.532 76.952 53.126C77.2307 53.7127 77.37 54.3653 77.37 55.084C77.37 55.876 77.216 56.5653 76.908 57.152C76.6 57.7387 76.1673 58.1933 75.61 58.516C75.0527 58.8387 74.3927 59 73.63 59H70.979ZM76.6 55.084C76.6 54.4607 76.4827 53.907 76.248 53.423C76.0207 52.939 75.6833 52.5613 75.236 52.29C74.796 52.0113 74.2607 51.872 73.63 51.872H71.749V58.318H73.63C74.2753 58.318 74.818 58.175 75.258 57.889C75.698 57.603 76.0317 57.218 76.259 56.734C76.4863 56.25 76.6 55.7 76.6 55.084ZM84.4193 58.318V59H79.1723V51.19H84.3203V51.872H79.9423V54.688H83.7593V55.337H79.9423V58.318H84.4193ZM90.7274 52.653C90.5074 52.411 90.2141 52.213 89.8474 52.059C89.4808 51.8977 89.0628 51.817 88.5934 51.817C87.9041 51.817 87.4018 51.949 87.0864 52.213C86.7711 52.4697 86.6134 52.8217 86.6134 53.269C86.6134 53.577 86.6904 53.819 86.8444 53.995C86.9984 54.171 87.2331 54.3177 87.5484 54.435C87.8711 54.545 88.2818 54.655 88.7804 54.765C89.3378 54.8823 89.8181 55.0217 90.2214 55.183C90.6248 55.3443 90.9364 55.5643 91.1564 55.843C91.3764 56.1143 91.4864 56.4847 91.4864 56.954C91.4864 57.4307 91.3654 57.8267 91.1234 58.142C90.8814 58.4573 90.5478 58.692 90.1224 58.846C89.6971 58.9927 89.2131 59.066 88.6704 59.066C87.4531 59.066 86.4081 58.6883 85.5354 57.933L85.9204 57.306C86.1991 57.5993 86.5804 57.8523 87.0644 58.065C87.5558 58.2777 88.0984 58.384 88.6924 58.384C89.3084 58.384 89.7924 58.2703 90.1444 58.043C90.4964 57.8157 90.6724 57.4783 90.6724 57.031C90.6724 56.7083 90.5844 56.4517 90.4084 56.261C90.2324 56.063 89.9684 55.9017 89.6164 55.777C89.2644 55.6523 88.8318 55.5313 88.3184 55.414C87.7758 55.2893 87.3174 55.15 86.9434 54.996C86.5768 54.842 86.2981 54.6403 86.1074 54.391C85.9168 54.1417 85.8214 53.8043 85.8214 53.379C85.8214 52.895 85.9388 52.488 86.1734 52.158C86.4154 51.8207 86.7454 51.5677 87.1634 51.399C87.5814 51.223 88.0618 51.135 88.6044 51.135C89.1178 51.135 89.5798 51.2157 89.9904 51.377C90.4011 51.531 90.7714 51.751 91.1014 52.037L90.7274 52.653ZM93.1741 59V51.19H93.9441V59H93.1741ZM99.3676 59.055C98.8396 59.055 98.3519 58.945 97.9046 58.725C97.4646 58.4977 97.0796 58.1933 96.7496 57.812C96.4196 57.4307 96.1629 57.0053 95.9796 56.536C95.8036 56.0593 95.7156 55.5753 95.7156 55.084C95.7156 54.5633 95.8036 54.0683 95.9796 53.599C96.1629 53.1223 96.4159 52.7007 96.7386 52.334C97.0613 51.96 97.4426 51.6667 97.8826 51.454C98.3226 51.2413 98.8029 51.135 99.3236 51.135C100.094 51.135 100.721 51.2927 101.205 51.608C101.689 51.9233 102.055 52.334 102.305 52.84L101.711 53.236C101.461 52.752 101.128 52.3963 100.71 52.169C100.292 51.9417 99.8259 51.828 99.3126 51.828C98.8799 51.828 98.4876 51.9197 98.1356 52.103C97.7909 52.2863 97.4939 52.532 97.2446 52.84C97.0026 53.148 96.8156 53.4963 96.6836 53.885C96.5516 54.2737 96.4856 54.677 96.4856 55.095C96.4856 55.535 96.5589 55.953 96.7056 56.349C96.8523 56.7377 97.0576 57.086 97.3216 57.394C97.5929 57.6947 97.9046 57.933 98.2566 58.109C98.6159 58.2777 99.0046 58.362 99.4226 58.362C99.8699 58.362 100.295 58.2557 100.699 58.043C101.109 57.8303 101.502 57.5003 101.876 57.053V55.755H100.138V55.161H102.525V59H101.876V57.856C101.157 58.6553 100.321 59.055 99.3676 59.055ZM105.207 52.609V59H104.437V51.19H105.075L110.201 57.702V51.201H110.971V59H110.256L105.207 52.609ZM116.364 60.43V50.475H117.013V60.43H116.364ZM122.407 59V51.19H125.058C125.887 51.19 126.576 51.366 127.126 51.718C127.683 52.0627 128.101 52.532 128.38 53.126C128.659 53.7127 128.798 54.3653 128.798 55.084C128.798 55.876 128.644 56.5653 128.336 57.152C128.028 57.7387 127.595 58.1933 127.038 58.516C126.481 58.8387 125.821 59 125.058 59H122.407ZM128.028 55.084C128.028 54.4607 127.911 53.907 127.676 53.423C127.449 52.939 127.111 52.5613 126.664 52.29C126.224 52.0113 125.689 51.872 125.058 51.872H123.177V58.318H125.058C125.703 58.318 126.246 58.175 126.686 57.889C127.126 57.603 127.46 57.218 127.687 56.734C127.914 56.25 128.028 55.7 128.028 55.084ZM135.847 58.318V59H130.6V51.19H135.748V51.872H131.37V54.688H135.187V55.337H131.37V58.318H135.847ZM137.6 51.19L140.394 58.043L143.177 51.19H143.98L140.746 59H140.042L136.797 51.19H137.6ZM150.676 58.318V59H145.429V51.19H150.577V51.872H146.199V54.688H150.016V55.337H146.199V58.318H150.676ZM152.462 59V51.19H153.232V58.318H157.742V59H152.462ZM162.029 59.055C161.479 59.055 160.981 58.945 160.533 58.725C160.086 58.4977 159.701 58.197 159.378 57.823C159.056 57.449 158.806 57.0273 158.63 56.558C158.454 56.0813 158.366 55.5937 158.366 55.095C158.366 54.5743 158.458 54.0793 158.641 53.61C158.825 53.1333 159.081 52.7117 159.411 52.345C159.749 51.971 160.141 51.6777 160.588 51.465C161.036 51.245 161.52 51.135 162.04 51.135C162.583 51.135 163.078 51.2487 163.525 51.476C163.973 51.7033 164.358 52.0077 164.68 52.389C165.01 52.7703 165.26 53.1957 165.428 53.665C165.604 54.1343 165.692 54.6147 165.692 55.106C165.692 55.6267 165.601 56.1253 165.417 56.602C165.234 57.0713 164.977 57.493 164.647 57.867C164.317 58.2337 163.929 58.5233 163.481 58.736C163.034 58.9487 162.55 59.055 162.029 59.055ZM159.136 55.095C159.136 55.5203 159.206 55.9273 159.345 56.316C159.485 56.7047 159.683 57.053 159.939 57.361C160.196 57.669 160.5 57.9147 160.852 58.098C161.212 58.274 161.604 58.362 162.029 58.362C162.477 58.362 162.876 58.2703 163.228 58.087C163.588 57.8963 163.892 57.6433 164.141 57.328C164.398 57.0127 164.592 56.6643 164.724 56.283C164.856 55.8943 164.922 55.4983 164.922 55.095C164.922 54.6697 164.853 54.2627 164.713 53.874C164.574 53.4853 164.372 53.137 164.108 52.829C163.852 52.521 163.547 52.279 163.195 52.103C162.843 51.927 162.455 51.839 162.029 51.839C161.589 51.839 161.19 51.9307 160.83 52.114C160.478 52.2973 160.174 52.5467 159.917 52.862C159.668 53.17 159.474 53.5183 159.334 53.907C159.202 54.2957 159.136 54.6917 159.136 55.095ZM167.474 59V51.19H170.708C171.045 51.19 171.353 51.2597 171.632 51.399C171.918 51.5383 172.164 51.729 172.369 51.971C172.582 52.2057 172.743 52.4697 172.853 52.763C172.97 53.049 173.029 53.3423 173.029 53.643C173.029 54.0683 172.934 54.4717 172.743 54.853C172.552 55.227 172.288 55.5313 171.951 55.766C171.614 56.0007 171.221 56.118 170.774 56.118H168.244V59H167.474ZM168.244 55.436H170.741C171.049 55.436 171.317 55.3517 171.544 55.183C171.771 55.0143 171.947 54.7943 172.072 54.523C172.197 54.2517 172.259 53.9583 172.259 53.643C172.259 53.3203 172.186 53.027 172.039 52.763C171.892 52.4917 171.698 52.2753 171.456 52.114C171.221 51.9527 170.961 51.872 170.675 51.872H168.244V55.436ZM181.566 59V52.642L178.739 57.581H178.255L175.417 52.642V59H174.647V51.19H175.439L178.486 56.536L181.555 51.19H182.336V59H181.566ZM189.87 58.318V59H184.623V51.19H189.771V51.872H185.393V54.688H189.21V55.337H185.393V58.318H189.87ZM192.426 52.609V59H191.656V51.19H192.294L197.42 57.702V51.201H198.19V59H197.475L192.426 52.609ZM206.027 51.872H203.244V59H202.474V51.872H199.691V51.19H206.027V51.872ZM210.306 60.43V50.475H210.955V60.43H210.306ZM223.267 59V52.642L220.44 57.581H219.956L217.118 52.642V59H216.348V51.19H217.14L220.187 56.536L223.256 51.19H224.037V59H223.267ZM228.745 51.19H229.394L232.639 59H231.825L230.813 56.558H227.304L226.303 59H225.478L228.745 51.19ZM230.637 55.953L229.064 52.092L227.469 55.953H230.637ZM234.088 59V51.19H237.388C237.726 51.19 238.034 51.2597 238.312 51.399C238.598 51.5383 238.844 51.729 239.049 51.971C239.255 52.2057 239.412 52.4697 239.522 52.763C239.64 53.049 239.698 53.3423 239.698 53.643C239.698 54.0243 239.625 54.38 239.478 54.71C239.339 55.04 239.137 55.3187 238.873 55.546C238.609 55.7733 238.305 55.92 237.96 55.986L239.874 59H239.005L237.168 56.118H234.858V59H234.088ZM234.858 55.436H237.41C237.718 55.436 237.986 55.3517 238.213 55.183C238.441 55.007 238.617 54.7833 238.741 54.512C238.866 54.2407 238.928 53.951 238.928 53.643C238.928 53.3277 238.855 53.038 238.708 52.774C238.569 52.5027 238.378 52.2863 238.136 52.125C237.894 51.9563 237.63 51.872 237.344 51.872H234.858V55.436ZM241.605 59V51.201H242.375V55.733L246.676 51.19H247.523L244.333 54.622L247.688 59H246.819L243.838 55.084L242.375 56.602V59H241.605ZM254.25 58.318V59H249.003V51.19H254.151V51.872H249.773V54.688H253.59V55.337H249.773V58.318H254.25ZM261.58 51.872H258.797V59H258.027V51.872H255.244V51.19H261.58V51.872ZM263.08 59V51.19H263.85V59H263.08ZM266.909 52.609V59H266.139V51.19H266.777L271.903 57.702V51.201H272.673V59H271.958L266.909 52.609ZM278.101 59.055C277.573 59.055 277.085 58.945 276.638 58.725C276.198 58.4977 275.813 58.1933 275.483 57.812C275.153 57.4307 274.896 57.0053 274.713 56.536C274.537 56.0593 274.449 55.5753 274.449 55.084C274.449 54.5633 274.537 54.0683 274.713 53.599C274.896 53.1223 275.149 52.7007 275.472 52.334C275.794 51.96 276.176 51.6667 276.616 51.454C277.056 51.2413 277.536 51.135 278.057 51.135C278.827 51.135 279.454 51.2927 279.938 51.608C280.422 51.9233 280.788 52.334 281.038 52.84L280.444 53.236C280.194 52.752 279.861 52.3963 279.443 52.169C279.025 51.9417 278.559 51.828 278.046 51.828C277.613 51.828 277.221 51.9197 276.869 52.103C276.524 52.2863 276.227 52.532 275.978 52.84C275.736 53.148 275.549 53.4963 275.417 53.885C275.285 54.2737 275.219 54.677 275.219 55.095C275.219 55.535 275.292 55.953 275.439 56.349C275.585 56.7377 275.791 57.086 276.055 57.394C276.326 57.6947 276.638 57.933 276.99 58.109C277.349 58.2777 277.738 58.362 278.156 58.362C278.603 58.362 279.028 58.2557 279.432 58.043C279.842 57.8303 280.235 57.5003 280.609 57.053V55.755H278.871V55.161H281.258V59H280.609V57.856C279.89 58.6553 279.054 59.055 278.101 59.055Z" fill="black"/>
<defs>
<linearGradient id="paint0_linear_11_16" x1="0.919052" y1="0.894625" x2="58.527" y2="76.264" gradientUnits="userSpaceOnUse">
<stop stop-color="#1D85E6"/>
<stop offset="0.628125" stop-color="#B421E6"/>
</linearGradient>
</defs>
</svg>
